<svg width="35" height="35" viewBox="0 0 35 35" fill="none" xmlns="http://www.w3.org/2000/svg">
<rect width="35" height="35" fill="#181818"/>
<path d="M22.6069 12.4147C21.5788 11.943 20.4764 11.5954 19.3237 11.3963C19.3027 11.3925 19.2817 11.4021 19.2709 11.4213C19.1291 11.6735 18.9721 12.0024 18.8621 12.261C17.6223 12.0754 16.3889 12.0754 15.1745 12.261C15.0645 11.9967 14.9018 11.6735 14.7593 11.4213C14.7485 11.4027 14.7276 11.3931 14.7066 11.3963C13.5545 11.5948 12.4521 11.9423 11.4234 12.4147C11.4145 12.4185 11.4068 12.4249 11.4018 12.4332C9.31066 15.5573 8.73779 18.6046 9.0188 21.6141C9.02006 21.6288 9.02835 21.6429 9.03978 21.6519C10.4194 22.6651 11.7559 23.2802 13.0675 23.6879C13.0885 23.6943 13.1107 23.6866 13.1241 23.6694C13.4343 23.2457 13.7109 22.7989 13.948 22.3291C13.962 22.3016 13.9487 22.2689 13.9201 22.258C13.4814 22.0916 13.0637 21.8887 12.6618 21.6583C12.63 21.6398 12.6275 21.5943 12.6567 21.5725C12.7413 21.5092 12.8259 21.4433 12.9066 21.3767C12.9213 21.3645 12.9416 21.362 12.9588 21.3696C15.5986 22.5749 18.4564 22.5749 21.065 21.3696C21.0822 21.3613 21.1026 21.3639 21.1178 21.376C21.1986 21.4426 21.2831 21.5092 21.3683 21.5725C21.3976 21.5943 21.3956 21.6397 21.3639 21.6583C20.9621 21.8932 20.5443 22.0916 20.105 22.2574C20.0764 22.2682 20.0637 22.3015 20.0777 22.329C20.3199 22.7982 20.5965 23.245 20.901 23.6687C20.9138 23.6866 20.9366 23.6943 20.9576 23.6879C22.2756 23.2802 23.612 22.6651 24.9917 21.6519C25.0038 21.6429 25.0114 21.6295 25.0127 21.6148C25.349 18.1354 24.4494 15.1131 22.6278 12.4339C22.6234 12.4249 22.6158 12.4185 22.6069 12.4147V12.4147ZM14.3423 19.7816C13.5476 19.7816 12.8927 19.052 12.8927 18.1559C12.8927 17.2599 13.5348 16.5302 14.3423 16.5302C15.1561 16.5302 15.8046 17.2662 15.7919 18.1559C15.7919 19.052 15.1497 19.7816 14.3423 19.7816ZM19.702 19.7816C18.9072 19.7816 18.2524 19.052 18.2524 18.1559C18.2524 17.2599 18.8945 16.5302 19.702 16.5302C20.5158 16.5302 21.1643 17.2662 21.1516 18.1559C21.1516 19.052 20.5158 19.7816 19.702 19.7816Z" fill="white"/>
</svg>
