<svg width="35" height="35" viewBox="0 0 35 35" fill="none" xmlns="http://www.w3.org/2000/svg">
<rect width="35" height="35" fill="#181818"/>
<path d="M24.7203 14.3397C24.6857 13.5554 24.5588 13.0162 24.3772 12.549C24.1897 12.053 23.9014 11.609 23.5236 11.2399C23.1545 10.865 22.7076 10.5738 22.2174 10.3893C21.7474 10.2076 21.2111 10.0808 20.4268 10.0462C19.6366 10.0087 19.3858 10 17.3818 10C15.3777 10 15.1269 10.0087 14.3397 10.0433C13.5554 10.0778 13.0162 10.2048 12.5491 10.3863C12.053 10.5738 11.609 10.8621 11.2399 11.2399C10.865 11.609 10.5739 12.056 10.3893 12.5462C10.2076 13.0162 10.0808 13.5524 10.0462 14.3367C10.0087 15.1269 10 15.3777 10 17.3818C10 19.3858 10.0087 19.6366 10.0433 20.4238C10.0778 21.2081 10.2048 21.7473 10.3865 22.2145C10.5739 22.7105 10.865 23.1545 11.2399 23.5236C11.609 23.8985 12.056 24.1897 12.5462 24.3742C13.0162 24.5559 13.5524 24.6827 14.3368 24.7173C15.124 24.752 15.3749 24.7606 17.3789 24.7606C19.383 24.7606 19.6338 24.752 20.421 24.7173C21.2053 24.6827 21.7445 24.5559 22.2116 24.3742C23.2036 23.9907 23.9879 23.2064 24.3714 22.2145C24.553 21.7445 24.6799 21.2081 24.7145 20.4238C24.7491 19.6366 24.7578 19.3858 24.7578 17.3818C24.7578 15.3777 24.7548 15.1269 24.7203 14.3397ZM23.391 20.3662C23.3593 21.087 23.2382 21.4763 23.1373 21.7358C22.8892 22.3789 22.3789 22.8892 21.7358 23.1373C21.4763 23.2382 21.0842 23.3593 20.3662 23.3909C19.5876 23.4256 19.3541 23.4342 17.3847 23.4342C15.4152 23.4342 15.1788 23.4256 14.4031 23.3909C13.6822 23.3593 13.2929 23.2382 13.0334 23.1373C12.7134 23.019 12.4221 22.8316 12.1857 22.5865C11.9406 22.3471 11.7532 22.0588 11.6349 21.7388C11.534 21.4792 11.4129 21.087 11.3813 20.3691C11.3466 19.5906 11.338 19.3569 11.338 17.3875C11.338 15.418 11.3466 15.1816 11.3813 14.406C11.4129 13.6851 11.534 13.2959 11.6349 13.0363C11.7532 12.7162 11.9406 12.4251 12.1886 12.1885C12.4279 11.9434 12.7162 11.756 13.0363 11.6378C13.2959 11.5369 13.6881 11.4158 14.406 11.3841C15.1846 11.3495 15.4182 11.3408 17.3875 11.3408C19.3599 11.3408 19.5934 11.3495 20.3691 11.3841C21.09 11.4158 21.4792 11.5369 21.7388 11.6378C22.0588 11.756 22.35 11.9434 22.5865 12.1885C22.8316 12.4279 23.019 12.7162 23.1373 13.0363C23.2382 13.2959 23.3593 13.6879 23.391 14.406C23.4256 15.1846 23.4343 15.418 23.4343 17.3875C23.4343 19.3569 23.4256 19.5876 23.391 20.3662Z" fill="white"/>
<path d="M17.3818 13.5889C15.2884 13.5889 13.59 15.2872 13.59 17.3807C13.59 19.4741 15.2884 21.1725 17.3818 21.1725C19.4752 21.1725 21.1736 19.4741 21.1736 17.3807C21.1736 15.2872 19.4752 13.5889 17.3818 13.5889ZM17.3818 19.8403C16.0237 19.8403 14.9221 18.7388 14.9221 17.3807C14.9221 16.0225 16.0237 14.921 17.3818 14.921C18.7399 14.921 19.8414 16.0225 19.8414 17.3807C19.8414 18.7388 18.7399 19.8403 17.3818 19.8403V19.8403Z" fill="white"/>
<path d="M22.209 13.4399C22.209 13.9287 21.8126 14.3251 21.3236 14.3251C20.8348 14.3251 20.4384 13.9287 20.4384 13.4399C20.4384 12.9509 20.8348 12.5547 21.3236 12.5547C21.8126 12.5547 22.209 12.9509 22.209 13.4399V13.4399Z" fill="white"/>
</svg>
