<svg width="35" height="35" viewBox="0 0 35 35" fill="none" xmlns="http://www.w3.org/2000/svg">
<rect width="35" height="35" fill="#181818"/>
<path d="M24.0497 13.721C23.2002 13.721 22.4165 13.4396 21.7871 12.9649C21.0653 12.4207 20.5467 11.6224 20.3635 10.7023C20.3182 10.475 20.2938 10.2404 20.2914 10H17.8649V16.6304L17.862 20.2622C17.862 21.2331 17.2297 22.0564 16.3533 22.3459C16.0989 22.43 15.8242 22.4698 15.5381 22.4541C15.173 22.434 14.8308 22.3239 14.5334 22.1459C13.9006 21.7674 13.4715 21.0808 13.4599 20.2953C13.4416 19.0677 14.434 18.0668 15.6608 18.0668C15.903 18.0668 16.1355 18.1063 16.3533 18.1781V16.3659V15.7144C16.1236 15.6804 15.8899 15.6626 15.6535 15.6626C14.3108 15.6626 13.0549 16.2208 12.1572 17.2263C11.4787 17.9862 11.0717 18.9557 11.0089 19.9723C10.9267 21.3078 11.4153 22.5774 12.363 23.514C12.5023 23.6515 12.6485 23.7791 12.8014 23.8969C13.6139 24.5222 14.6073 24.8611 15.6535 24.8611C15.8899 24.8611 16.1236 24.8437 16.3533 24.8097C17.3306 24.6649 18.2324 24.2175 18.944 23.514C19.8185 22.6497 20.3016 21.5023 20.3068 20.2811L20.2943 14.8577C20.7115 15.1795 21.1676 15.4458 21.6572 15.6525C22.4185 15.9737 23.2258 16.1365 24.0566 16.1362V14.3742V13.7204C24.0572 13.721 24.0503 13.721 24.0497 13.721V13.721Z" fill="white"/>
</svg>
