<svg width="35" height="35" viewBox="0 0 35 35" fill="none" xmlns="http://www.w3.org/2000/svg">
<rect width="35" height="35" fill="#181818"/>
<path d="M25.2319 12.8048C24.6871 13.0438 24.1065 13.2022 23.5012 13.2791C24.1239 12.9073 24.5992 12.3231 24.8226 11.6189C24.242 11.9651 23.6011 12.2096 22.9179 12.346C22.3667 11.759 21.581 11.3955 20.7239 11.3955C19.061 11.3955 17.7223 12.7452 17.7223 14.3999C17.7223 14.638 17.7424 14.8669 17.7919 15.0849C15.2948 14.9631 13.0852 13.7662 11.6008 11.9431C11.3417 12.3927 11.1897 12.9073 11.1897 13.4613C11.1897 14.5016 11.7254 15.4237 12.5239 15.9575C12.0413 15.9484 11.5679 15.8083 11.1668 15.5876C11.1668 15.5967 11.1668 15.6086 11.1668 15.6205C11.1668 17.0802 12.2079 18.2925 13.5732 18.5718C13.3288 18.6387 13.0623 18.6707 12.7857 18.6707C12.5935 18.6707 12.3993 18.6597 12.2171 18.6194C12.6063 19.8089 13.7106 20.6834 15.0237 20.7118C14.0018 21.5112 12.7043 21.9929 11.2996 21.9929C11.0532 21.9929 10.817 21.9819 10.5807 21.9517C11.9113 22.8097 13.4881 23.2996 15.1885 23.2996C20.7157 23.2996 23.7375 18.7211 23.7375 14.7525C23.7375 14.6197 23.7329 14.4915 23.7265 14.3642C24.3226 13.9411 24.8235 13.4128 25.2319 12.8048Z" fill="white"/>
</svg>
